<svg width="22" height="28" viewBox="0 0 22 28" fill="none" xmlns="http://www.w3.org/2000/svg">
<path fill-rule="evenodd" clip-rule="evenodd" d="M1.08325 27.215L10.9999 22.6942L20.9166 27.215V3.16671C20.9166 1.73997 19.6481 0.583374 18.0833 0.583374H3.91659C2.35178 0.583374 1.08325 1.73997 1.08325 3.16671V27.215ZM10.9999 19.8059L3.91658 23.0351V3.16671H18.0832V23.0351L10.9999 19.8059Z" fill="white"/>
<path d="M10.9999 22.6942L11.2073 22.2392L10.9999 22.1447L10.7925 22.2392L10.9999 22.6942ZM1.08325 27.215H0.583252V27.9924L1.29066 27.67L1.08325 27.215ZM20.9166 27.215L20.7092 27.67L21.4166 27.9924V27.215H20.9166ZM3.91658 23.0351H3.41658V23.8125L4.12399 23.49L3.91658 23.0351ZM10.9999 19.8059L11.2073 19.351L10.9999 19.2564L10.7925 19.351L10.9999 19.8059ZM3.91658 3.16671V2.66671H3.41658V3.16671H3.91658ZM18.0832 3.16671H18.5832V2.66671H18.0832V3.16671ZM18.0832 23.0351L17.8758 23.49L18.5832 23.8125V23.0351H18.0832ZM10.7925 22.2392L0.875847 26.76L1.29066 27.67L11.2073 23.1491L10.7925 22.2392ZM21.124 26.76L11.2073 22.2392L10.7925 23.1491L20.7092 27.67L21.124 26.76ZM20.4166 3.16671V27.215H21.4166V3.16671H20.4166ZM18.0833 1.08337C19.4164 1.08337 20.4166 2.05858 20.4166 3.16671H21.4166C21.4166 1.42136 19.8797 0.083374 18.0833 0.083374V1.08337ZM3.91659 1.08337H18.0833V0.083374H3.91659V1.08337ZM1.58325 3.16671C1.58325 2.05858 2.58345 1.08337 3.91659 1.08337V0.083374C2.12011 0.083374 0.583252 1.42136 0.583252 3.16671H1.58325ZM1.58325 27.215V3.16671H0.583252V27.215H1.58325ZM4.12399 23.49L11.2073 20.2609L10.7925 19.351L3.70918 22.5801L4.12399 23.49ZM3.41658 3.16671V23.0351H4.41658V3.16671H3.41658ZM18.0832 2.66671H3.91658V3.66671H18.0832V2.66671ZM18.5832 23.0351V3.16671H17.5832V23.0351H18.5832ZM10.7925 20.2609L17.8758 23.49L18.2907 22.5801L11.2073 19.351L10.7925 20.2609Z" fill="white"/>
</svg>
