<svg width="29" height="23" viewBox="0 0 29 23" fill="none" xmlns="http://www.w3.org/2000/svg">
<path fill-rule="evenodd" clip-rule="evenodd" d="M23.1827 3.05238C24.5528 3.05238 25.6634 4.16304 25.6634 5.5331V6.77346C27.0335 6.77346 28.1442 7.88412 28.1442 9.25419L28.1146 9.52326L25.6584 20.576C25.5767 21.8722 24.4995 22.8982 23.1827 22.8982H3.33692C1.96686 22.8982 0.856201 21.7875 0.856201 20.4174V3.05238C0.856201 1.68231 1.96686 0.571655 3.33692 0.571655H10.7791C12.1683 0.571655 13.0526 1.16139 13.9407 2.28193C13.9653 2.31294 14.0252 2.39015 14.0916 2.47564C14.1852 2.59626 14.2916 2.73338 14.3296 2.78052C14.3681 2.82818 14.4005 2.8676 14.4273 2.90019L14.4273 2.9002C14.5364 3.03288 14.5522 3.05211 14.5024 3.05238H23.1827ZM23.1827 5.5331V6.77346H5.81765C4.37064 6.77346 3.72169 7.5443 3.37305 8.957L3.33692 9.11956V3.05238H10.7791C11.2557 3.05238 11.532 3.23666 11.9966 3.82284C12.0112 3.84123 12.053 3.89504 12.105 3.96211L12.1052 3.96243L12.1053 3.96256C12.205 4.09107 12.3423 4.26802 12.3988 4.33807C13.0225 5.11127 13.6028 5.52832 14.4935 5.53308L23.1827 5.5331ZM23.1827 20.4174H3.36718L5.78811 9.52326C5.81755 9.40464 5.8433 9.31565 5.86268 9.25419H25.6332L23.2122 20.1484L23.1827 20.4174Z" fill="#FF6060"/>
</svg>
