<svg width="20" height="20" viewBox="0 0 20 20" fill="none" xmlns="http://www.w3.org/2000/svg">
<path fill-rule="evenodd" clip-rule="evenodd" d="M10 20C4.47715 20 0 15.5228 0 10C0 4.47715 4.47715 0 10 0C15.5228 0 20 4.47715 20 10C20 15.5228 15.5228 20 10 20ZM10 18.1817C14.5187 18.1817 18.1818 14.5186 18.1818 9.99989C18.1818 5.4812 14.5187 1.81808 10 1.81808C5.48133 1.81808 1.81821 5.4812 1.81821 9.99989C1.81821 14.5186 5.48133 18.1817 10 18.1817ZM14.4641 13.1349L12.9769 12.0889C12.2993 13.0524 11.1995 13.6364 9.99997 13.6364C8.80043 13.6364 7.70061 13.0524 7.02301 12.0889L5.53582 13.1349C6.55038 14.5774 8.2022 15.4546 9.99997 15.4546C11.7977 15.4546 13.4496 14.5774 14.4641 13.1349ZM11.8182 9.09088V7.27269H13.6364V9.09088H11.8182ZM6.36359 7.27269V9.09088H8.18177V7.27269H6.36359Z" fill="white"/>
</svg>
