<svg width="28" height="29" viewBox="0 0 28 29" fill="none" xmlns="http://www.w3.org/2000/svg">
<path fill-rule="evenodd" clip-rule="evenodd" d="M13.8845 28.3434C6.3491 28.3434 0.240479 22.0602 0.240479 14.3096C0.240479 6.55891 6.3491 0.275757 13.8845 0.275757C21.4198 0.275757 27.5284 6.55891 27.5284 14.3096C27.5284 22.0602 21.4198 28.3434 13.8845 28.3434ZM23.0625 20.8476C24.3142 18.9922 25.0477 16.739 25.0477 14.3096C25.0477 7.96812 20.0498 2.82736 13.8845 2.82736C7.71916 2.82736 2.7212 7.96812 2.7212 14.3096C2.7212 16.739 3.45473 18.9922 4.70641 20.8476C6.10237 18.951 9.38269 18.137 13.8845 18.137C18.3862 18.137 21.6665 18.951 23.0625 20.8476ZM21.2828 22.9082C20.9198 21.5655 18.3118 20.6886 13.8845 20.6886C9.45714 20.6886 6.84913 21.5655 6.48609 22.9082C8.45577 24.7025 11.0464 25.7918 13.8845 25.7918C16.7225 25.7918 19.3131 24.7025 21.2828 22.9082ZM13.8845 6.65476C10.8817 6.65476 8.92301 8.89476 8.92301 11.758C8.92301 16.1306 11.1071 18.137 13.8845 18.137C16.6357 18.137 18.8459 16.1973 18.8459 12.0131C18.8459 9.10631 16.8789 6.65476 13.8845 6.65476ZM11.4037 11.758C11.4037 14.6531 12.4186 15.5854 13.8845 15.5854C15.3452 15.5854 16.3652 14.6903 16.3652 12.0131C16.3652 10.4189 15.3923 9.20636 13.8845 9.20636C12.3138 9.20636 11.4037 10.2472 11.4037 11.758Z" fill="#FF6060"/>
</svg>
