<svg width="11" height="11" viewBox="0 0 11 11" fill="none" xmlns="http://www.w3.org/2000/svg">
<path fill-rule="evenodd" clip-rule="evenodd" d="M5.5 11C2.46243 11 0 8.53757 0 5.5C0 2.46243 2.46243 0 5.5 0C8.53757 0 11 2.46243 11 5.5C11 8.53757 8.53757 11 5.5 11ZM5.5 9.625C7.77817 9.625 9.625 7.77817 9.625 5.5C9.625 3.22183 7.77817 1.375 5.5 1.375C3.22183 1.375 1.375 3.22183 1.375 5.5C1.375 7.77817 3.22183 9.625 5.5 9.625ZM4.81453 6.18636H7.56453V4.81136H6.18998V2.74886H4.81453V6.18636Z" fill="#22C7A9" fill-opacity="0.8"/>
</svg>
